<?xml version="1.0" encoding="iso-8859-1"?>
<!-- Generator: Adobe Illustrator 19.0.0, SVG Export Plug-In . SVG Version: 6.00 Build 0)  -->
<svg version="1.1" id="Layer_1" xmlns="http://www.w3.org/2000/svg" width="512" height="512" xmlns:xlink="http://www.w3.org/1999/xlink" x="0px" y="0px"
	 viewBox="0 0 505 505" style="enable-background:new 0 0 505 505;" xml:space="preserve">
<circle style="fill:#f5593d;" cx="252.5" cy="252.5" r="252.5"/>
<polygon style="fill:#FFFFFF;" points="179.4,418.9 179.4,365.3 125.9,365.3 125.9,86.1 379.1,86.1 379.1,418.9 "/>
<polygon style="fill:#E6E9EE;" points="179.4,418.9 125.9,365.3 179.4,365.3 "/>
<g>
	<path style="fill:#f5593d;" d="M194,112.2h9.1v40.7H194l-19.4-25.5v25.5h-9.1v-40.7h8.5l20,26.2V112.2z"/>
	<path style="fill:#f5593d;" d="M242.4,112.2v8.1h-20.2v8.4h18.2v7.7h-18.2v8.4h20.9v8h-30v-40.7h29.3V112.2z"/>
	<path style="fill:#f5593d;" d="M263.8,135.6l7.2-23.4h9.5l7.2,23.4l8.1-23.4h9.8l-14.2,40.7h-6.8l-8.9-28.3l-8.8,28.3h-6.7
		L246,112.2h9.8L263.8,135.6z"/>
	<path style="fill:#f5593d;" d="M319.6,120.3c-0.9,0.7-1.3,1.7-1.3,2.8s0.5,2.1,1.6,2.8s3.5,1.5,7.4,2.5s6.9,2.4,9,4.3
		c2.1,1.9,3.2,4.7,3.2,8.3s-1.4,6.6-4.1,8.9c-2.7,2.3-6.3,3.4-10.8,3.4c-6.4,0-12.2-2.4-17.4-7.2l5.4-6.6c4.4,3.8,8.4,5.8,12.2,5.8
		c1.7,0,3-0.4,3.9-1.1c1-0.7,1.4-1.7,1.4-2.9s-0.5-2.2-1.5-2.9s-3-1.4-6-2.2c-4.7-1.1-8.2-2.6-10.4-4.4c-2.2-1.8-3.3-4.6-3.3-8.5
		s1.4-6.8,4.2-8.9c2.8-2.1,6.2-3.1,10.4-3.1c2.7,0,5.4,0.5,8.1,1.4s5.1,2.2,7.1,4l-4.6,6.6c-3.5-2.7-7.2-4-10.9-4
		C321.7,119.2,320.5,119.6,319.6,120.3z"/>
</g>
<g>
	<rect x="148.7" y="175.9" style="fill:#E6E9EE;" width="207.6" height="3.8"/>
	<rect x="148.7" y="168.2" style="fill:#E6E9EE;" width="207.6" height="3.8"/>
</g>
<rect x="148.7" y="191.5" style="fill:#ACB3BA;" width="92.5" height="65.8"/>
<g>
	<rect x="148.7" y="270.8" style="fill:#E6E9EE;" width="92.5" height="11.5"/>
	<rect x="148.7" y="293.3" style="fill:#E6E9EE;" width="92.5" height="11.5"/>
	<rect x="148.7" y="315.8" style="fill:#E6E9EE;" width="92.5" height="11.5"/>
	<rect x="148.7" y="338.3" style="fill:#E6E9EE;" width="92.5" height="11.5"/>
</g>
<rect x="263.8" y="284" style="fill:#ACB3BA;" width="92.5" height="65.8"/>
<g>
	<rect x="263.8" y="258.9" style="fill:#E6E9EE;" width="92.5" height="11.5"/>
	<rect x="263.8" y="236.4" style="fill:#E6E9EE;" width="92.5" height="11.5"/>
	<rect x="263.8" y="213.9" style="fill:#E6E9EE;" width="92.5" height="11.5"/>
	<rect x="263.8" y="191.5" style="fill:#E6E9EE;" width="92.5" height="11.5"/>
</g>
<g>
</g>
<g>
</g>
<g>
</g>
<g>
</g>
<g>
</g>
<g>
</g>
<g>
</g>
<g>
</g>
<g>
</g>
<g>
</g>
<g>
</g>
<g>
</g>
<g>
</g>
<g>
</g>
<g>
</g>
</svg>
