<?xml version="1.0" ?><!DOCTYPE svg  PUBLIC '-//W3C//DTD SVG 1.1//EN'  'http://www.w3.org/Graphics/SVG/1.1/DTD/svg11.dtd'><svg enable-background="new 0 0 24 24" height="24px" id="Layer_1" version="1.1" viewBox="0 0 24 24" width="24px" xml:space="preserve" xmlns="http://www.w3.org/2000/svg" xmlns:xlink="http://www.w3.org/1999/xlink"><g><g><path d="M12,23.4C5.7,23.4,0.6,18.3,0.6,12C0.6,5.7,5.7,0.6,12,0.6c6.3,0,11.4,5.1,11.4,11.4C23.4,18.3,18.3,23.4,12,23.4z     M12,1.6C6.3,1.6,1.6,6.3,1.6,12c0,5.7,4.7,10.4,10.4,10.4c5.7,0,10.4-4.7,10.4-10.4C22.4,6.3,17.7,1.6,12,1.6z"/></g><g><path d="M12,19.2c-4,0-7.2-3.2-7.2-7.2C4.8,8,8,4.8,12,4.8c4,0,7.2,3.2,7.2,7.2C19.2,16,16,19.2,12,19.2z M12,5.8    c-3.4,0-6.2,2.8-6.2,6.2c0,3.4,2.8,6.2,6.2,6.2c3.4,0,6.2-2.8,6.2-6.2C18.2,8.6,15.4,5.8,12,5.8z"/></g></g></svg>