<svg version="1" xmlns="http://www.w3.org/2000/svg" width="682.667" height="682.667" viewBox="0 0 512 512"><path d="M234 .6c-23.8 2.7-45.2 7.3-62.1 13.3C86.9 44 24.2 115 5.5 202.5c-4.3 20.1-5 28-5 53.5 0 24.9.7 33.1 4.7 52 19.6 94.6 92.1 171.1 185.1 195.5 25.3 6.6 36 7.9 65.7 7.9 22.9 0 28.3-.3 39.5-2.2 56.1-9.7 102.6-33.5 141.4-72.3 33.1-33 56.3-73.8 67.4-118.4 5.9-23.7 7.2-34.8 7.2-62.5 0-27.7-1.3-38.8-7.2-62.5C485.5 118.2 432.9 55.1 362 22.9c-21.9-10-44.9-16.8-68.5-20.4C283 .9 242.7-.4 234 .6zM384 256v169H182.5l-27-27-27-27 27-.3 27-.2-27.2-.3-27.3-.2V87h256v169z"/><path d="M216 134v21h31v-7.9l-10.7-.3-10.8-.3v-8l9.3-.3 9.2-.3V130h-19v-8h21.1l-.3-4.3-.3-4.2-14.7-.3-14.8-.3V134zm104.4-20.1c-1.1.5-3.3 2.3-4.7 4.1-5.3 6.2-2.5 15.5 5.5 18.3 2.3.8 6.1 2.1 8.3 2.9 3.1 1.1 4.1 1.9 4.3 4 .2 2-.2 2.8-1.8 3.3-3.1 1-8.4-.2-11.4-2.6-3.1-2.4-4.8-2-7.2 1.6-2 3.1-1.1 4.5 5.3 7.6 3.1 1.5 6.5 2.2 10.2 2.2 9.8 0 15.1-4.5 15.1-12.6 0-7.2-2.4-9.3-16.2-14.2-3.2-1.1-4.8-2.2-4.8-3.4 0-4.4 4.9-5.3 11.7-2.1l4.2 1.9 2.1-2.9c1.1-1.5 2-3.3 2-3.8 0-3.3-17.3-6.5-22.6-4.3zM168 134.5V155h8.9l.3-12.5.3-12.5 9.5 12.5 9.5 12.5h9.5v-41h-9.9l-.3 12.2-.3 12.3-9.3-12.3-9.3-12.2H168v20.5zm88.4 0l7.1 20.5h7.3l3.2-10.3c1.7-5.6 3.7-11.9 4.3-14l1.3-3.9 4.3 14.1 4.4 14.1h3.9c2.1 0 3.8-.2 3.8-.4 0-.3 3.1-9.5 6.9-20.5l7-20.1h-10.5l-3.3 10.2c-1.8 5.7-3.6 10.6-4 11.1-.4.4-2.2-4.2-4.1-10.3l-3.3-11h-10.3l-3.5 11.2-3.5 11.3-3.8-11.3-3.9-11.2h-10.4l7.1 20.5zm-105.4 93V261l46.8-.2 46.7-.3v-66l-46.7-.3-46.8-.2v33.5zm116.2 93.7l.3 33.3 46.8.3 46.7.2v-67h-94l.2 33.2z"/></svg>